<?xml version="1.0" standalone="no"?>
<!DOCTYPE svg PUBLIC "-//W3C//DTD SVG 20010904//EN"
 "http://www.w3.org/TR/2001/REC-SVG-20010904/DTD/svg10.dtd">
<svg version="1.0" xmlns="http://www.w3.org/2000/svg"
 width="32.000000pt" height="32.000000pt" viewBox="0 0 32.000000 32.000000"
 preserveAspectRatio="xMidYMid meet">

<g transform="translate(0.000000,32.000000) scale(0.100000,-0.100000)"
fill="#000000" stroke="none">
<path d="M110 263 c-8 -3 -23 -12 -32 -21 -22 -19 -24 -85 -3 -102 8 -7 15
-17 15 -23 0 -20 51 -77 70 -77 19 0 70 57 70 77 0 6 7 16 15 23 22 18 19 83
-5 105 -20 18 -102 30 -130 18z m110 -28 c23 -24 21 -29 -11 -26 -9 1 -22 -5
-29 -14 -10 -12 -9 -16 6 -22 10 -4 19 -2 22 5 7 22 22 13 22 -13 0 -16 -6
-25 -16 -25 -11 0 -14 -6 -9 -21 5 -15 4 -19 -4 -14 -8 4 -16 -5 -24 -24 -14
-39 -30 -39 -56 -2 -22 31 -28 57 -11 46 6 -3 10 -1 10 5 0 7 -6 10 -14 7 -22
-9 -38 18 -34 60 2 28 9 41 28 50 42 21 94 16 120 -12z"/>
<path d="M103 195 c-3 -9 -3 -18 0 -21 9 -9 27 6 27 22 0 19 -19 18 -27 -1z"/>
<path d="M150 149 c0 -11 5 -17 10 -14 6 3 10 13 10 21 0 8 -4 14 -10 14 -5 0
-10 -9 -10 -21z"/>
</g>
</svg>
